<svg version="1.1" id="Layer_1" xmlns="http://www.w3.org/2000/svg" xmlns:xlink="http://www.w3.org/1999/xlink" x="0px" y="0px"
	 width="100%" viewBox="0 0 391 402" enable-background="new 0 0 391 402" xml:space="preserve">
<path fill="#FFFFFF" opacity="1.000000" stroke="none" 
	d="
M1.000002,398.000000 
	C1.000000,265.714691 1.000000,133.429413 1.000000,1.072054 
	C131.237946,1.072054 261.475952,1.072054 392.000000,1.072054 
	C392.000000,133.023193 392.000000,265.046570 391.613068,397.693176 
	C389.099304,398.544250 386.972534,398.971008 384.845642,398.971558 
	C259.681824,399.003357 134.518036,399.006439 9.354246,398.958191 
	C6.569376,398.957123 3.784745,398.333313 1.000002,398.000000 
M329.945648,362.010590 
	C332.237762,339.231354 330.237396,316.799042 324.793915,293.835815 
	C325.528351,291.135071 326.959320,288.414490 326.883240,285.736786 
	C326.418152,269.373230 325.903198,253.000427 324.844452,236.667038 
	C323.510864,216.094406 321.639862,195.556625 320.818726,175.008850 
	C326.215790,174.720856 328.573059,172.821625 327.816498,166.632080 
	C326.438721,155.360886 323.981628,144.221619 321.915588,132.264435 
	C320.727203,129.056137 319.526642,125.852280 318.352783,122.638672 
	C315.182312,113.958771 310.925354,111.690620 301.826599,113.212456 
	C302.306061,111.816620 303.031799,110.453613 303.222870,109.019356 
	C304.111206,102.352531 306.259521,95.454391 305.295441,89.038979 
	C304.033569,80.642006 297.773682,74.954338 289.126221,73.437973 
	C279.782623,71.799545 270.745026,73.205826 263.567047,79.999321 
	C259.366180,83.975136 260.362946,87.383621 265.999451,92.054008 
	C265.716278,95.813293 264.961090,99.612282 265.273102,103.321495 
	C265.638245,107.662300 266.599976,112.031410 267.928467,116.188309 
	C269.027252,119.626411 273.339386,119.650383 275.451538,121.452995 
	C280.993744,126.182976 285.720673,125.067146 291.648743,121.764931 
	C294.384796,119.981010 297.120850,118.197090 299.919464,116.372398 
	C300.231873,117.758278 300.572723,119.270294 300.606018,121.400887 
	C298.183044,125.467278 295.415222,129.333023 290.298492,129.870407 
	C286.257996,130.294785 282.136139,129.874252 278.064484,130.091873 
	C273.870361,130.316025 268.918274,127.840904 266.004700,133.285980 
	C265.608368,134.026688 264.228424,134.174652 263.475464,134.802750 
	C260.583344,137.215363 257.420685,139.416489 254.977493,142.233032 
	C248.064972,150.201813 241.457825,158.435501 234.657349,166.653076 
	C231.880661,165.047348 229.010986,163.397781 226.150848,161.731842 
	C219.437759,157.821686 212.729233,153.903717 205.837570,149.395966 
	C204.903427,148.977966 203.969284,148.559982 203.280273,147.212723 
	C203.219803,121.445724 203.159973,95.678726 203.098572,69.911728 
	C203.063705,55.282532 203.101700,40.652557 202.949341,26.024576 
	C202.895401,20.846579 201.532059,16.161173 195.823044,13.386652 
	C195.210693,13.227294 194.598343,13.067936 194.065369,13.017101 
	C194.065369,13.017101 194.186325,12.958374 193.831772,12.350665 
	C192.946487,11.896145 191.976532,11.555466 191.188950,10.969604 
	C182.775314,4.710933 175.080688,6.268302 166.413376,11.474912 
	C139.459732,27.666447 112.157089,43.283207 84.846695,58.872173 
	C69.937759,67.382301 62.940979,80.124863 63.002331,97.014366 
	C63.252838,165.976608 63.737606,234.939133 63.595016,303.900452 
	C63.572884,314.604187 67.080338,321.392883 77.211609,325.737305 
	C83.759689,330.666870 90.126884,329.360748 96.704239,325.548950 
	C125.059441,309.115997 153.434006,292.714935 181.907974,276.489075 
	C196.787994,268.009705 203.814026,255.235458 203.832520,238.364334 
	C203.857147,215.893707 203.800232,193.422974 204.509949,171.016495 
	C205.235168,171.391632 206.015839,171.688049 206.677139,172.153900 
	C214.645218,177.767059 222.540634,183.485214 230.568207,189.011551 
	C236.941254,193.398865 239.382614,193.045868 244.837814,187.693771 
	C248.499252,184.101532 252.243362,180.593582 255.975525,177.963333 
	C256.184540,181.741241 256.202423,185.541351 256.637939,189.292969 
	C258.020020,201.198730 259.557922,213.086395 261.009247,225.862854 
	C261.336121,228.644989 261.818970,231.418961 261.964905,234.210556 
	C263.017731,254.351974 263.785339,274.511719 265.150421,294.631226 
	C265.525116,300.153564 265.420593,306.451050 271.260986,310.942566 
	C271.840393,316.807495 272.699066,322.660767 272.945251,328.539642 
	C273.603821,344.268890 273.999725,360.009155 274.036438,376.381805 
	C270.127960,379.858063 265.430511,380.189423 260.496399,380.013763 
	C255.946976,379.851776 253.214767,382.439880 254.648987,385.662354 
	C255.475739,387.520020 257.573334,389.794952 259.377441,390.072662 
	C269.794342,391.676147 280.281860,392.879761 290.781464,393.814575 
	C292.131042,393.934753 294.685791,391.902252 294.948364,390.534180 
	C295.537994,387.462311 295.037537,384.181213 295.311035,380.242249 
	C295.821442,374.425140 296.331848,368.608032 297.499237,363.080933 
	C301.305481,368.296143 306.644684,370.411072 312.887726,371.000824 
	C315.469360,371.244659 317.968414,372.470184 320.544586,372.636780 
	C323.489105,372.827179 327.798889,373.432800 329.106689,371.857849 
	C330.677856,369.965729 329.709076,365.964508 329.945648,362.010590 
z"/>
<path fill="#FFFFFF" opacity="1.000000" stroke="none" 
	d="
M378.000000,403.000000 
	C257.644043,403.000000 137.288055,403.000000 16.480820,402.582397 
	C16.940870,398.176208 20.162867,400.098907 22.201340,400.097015 
	C138.679047,399.988098 255.156891,399.999908 371.634705,400.000793 
	C372.967712,400.000793 374.475403,399.628723 375.582703,400.131927 
	C376.610657,400.599030 377.211243,402.006561 378.000000,403.000000 
z"/>
<path fill="#D8DBEB" opacity="1.000000" stroke="none" 
	d="
M378.474121,403.000000 
	C377.211243,402.006561 376.610657,400.599030 375.582703,400.131927 
	C374.475403,399.628723 372.967712,400.000793 371.634705,400.000793 
	C255.156891,399.999908 138.679047,399.988098 22.201340,400.097015 
	C20.162867,400.098907 16.940870,398.176208 16.014778,402.582397 
	C11.128190,403.000000 6.256379,403.000000 1.000000,403.000000 
	C1.000000,401.684235 1.000000,400.342072 1.000002,398.499939 
	C3.784745,398.333313 6.569376,398.957123 9.354246,398.958191 
	C134.518036,399.006439 259.681824,399.003357 384.845642,398.971558 
	C386.972534,398.971008 389.099304,398.544250 391.613068,398.158203 
	C392.000000,399.626282 392.000000,401.252563 392.000000,403.000000 
	C387.649872,403.000000 383.299042,403.000000 378.474121,403.000000 
z"/>
<path fill="#E2E6EF" opacity="1.000000" stroke="none" 
	d="
M206.018860,149.988892 
	C212.729233,153.903717 219.437759,157.821686 226.150848,161.731842 
	C229.010986,163.397781 231.880661,165.047348 234.657349,166.653076 
	C241.457825,158.435501 248.064972,150.201813 254.977493,142.233032 
	C257.420685,139.416489 260.583344,137.215363 263.475464,134.802750 
	C264.228424,134.174652 265.608368,134.026688 266.004700,133.285980 
	C268.918274,127.840904 273.870361,130.316025 278.064484,130.091873 
	C282.136139,129.874252 286.257996,130.294785 290.298492,129.870407 
	C295.415222,129.333023 298.183044,125.467278 300.845947,120.725967 
	C301.403870,118.022202 301.721863,115.993355 302.039886,113.964516 
	C310.925354,111.690620 315.182312,113.958771 318.352783,122.638672 
	C319.526642,125.852280 320.727203,129.056137 321.651367,132.937256 
	C320.925018,147.407974 320.462860,161.205887 320.000702,175.003799 
	C321.639862,195.556625 323.510864,216.094406 324.844452,236.667038 
	C325.903198,253.000427 326.418152,269.373230 326.883240,285.736786 
	C326.959320,288.414490 325.528351,291.135071 324.362366,294.075256 
	C321.213684,295.838379 318.496582,297.362030 315.428833,298.929230 
	C311.049652,300.637268 307.021088,302.301727 303.019592,303.980469 
	C303.046692,303.994751 303.035095,304.054932 302.981995,303.795319 
	C302.638245,303.362701 302.347595,303.189697 301.770142,302.819275 
	C300.730011,301.474670 299.976685,300.327515 298.880219,298.657776 
	C297.986633,301.913727 297.384705,304.107025 296.398438,306.266815 
	C292.347260,306.958679 288.680359,307.684021 284.612915,308.383301 
	C279.894775,308.929688 275.577209,309.502167 271.259674,310.074646 
	C265.420593,306.451050 265.525116,300.153564 265.150421,294.631226 
	C263.785339,274.511719 263.017731,254.351974 261.964905,234.210556 
	C261.818970,231.418961 261.336121,228.644989 261.378174,225.387604 
	C263.468811,221.491882 266.041565,218.237335 266.747040,214.618729 
	C268.601837,205.105331 269.936218,195.463394 270.922791,185.815887 
	C271.801941,177.218781 271.938141,168.545731 272.465240,158.732254 
	C266.261261,165.612762 261.105865,171.330338 255.950485,177.047913 
	C252.243362,180.593582 248.499252,184.101532 244.837814,187.693771 
	C239.382614,193.045868 236.941254,193.398865 230.568207,189.011551 
	C222.540634,183.485214 214.645218,177.767059 206.677139,172.153900 
	C206.015839,171.688049 205.235168,171.391632 203.963196,170.717621 
	C201.693375,169.397507 199.970337,168.376236 198.131561,167.016541 
	C197.011627,165.457993 196.007385,164.237900 195.107941,162.690033 
	C198.814774,158.237808 202.416809,154.113342 206.018860,149.988892 
z"/>
<path fill="#152137" opacity="1.000000" stroke="none" 
	d="
M76.876312,325.111267 
	C67.080338,321.392883 63.572884,314.604187 63.595016,303.900452 
	C63.737606,234.939133 63.252838,165.976608 63.002331,97.014366 
	C62.940979,80.124863 69.937759,67.382301 84.846695,58.872173 
	C112.157089,43.283207 139.459732,27.666447 166.413376,11.474912 
	C175.080688,6.268302 182.775314,4.710933 191.188950,10.969604 
	C191.976532,11.555466 192.946487,11.896145 193.604752,12.676990 
	C190.136871,14.195771 186.653778,14.962441 183.692886,16.646990 
	C156.108185,32.340855 128.780212,48.494198 101.016510,63.861538 
	C88.525795,70.775208 79.449425,79.733452 76.558990,93.992577 
	C75.940376,97.044327 75.995239,100.263214 75.994797,103.405144 
	C75.984978,173.524048 75.997849,243.642960 76.066040,313.761810 
	C76.069717,317.545227 76.594238,321.328125 76.876312,325.111267 
M68.977234,115.318336 
	C67.390526,116.280937 64.329834,117.688431 64.463638,118.131744 
	C65.170181,120.472649 66.506172,122.710854 68.051132,124.643028 
	C68.389107,125.065712 71.496040,124.238777 71.564491,123.743591 
	C71.843002,121.728745 71.561150,119.597549 71.209671,117.556816 
	C71.095482,116.893768 70.138374,116.375885 68.977234,115.318336 
M71.929718,110.578560 
	C74.034027,106.967926 71.811089,104.509354 69.238838,102.796974 
	C68.368774,102.217766 64.754517,103.725044 64.769821,104.202667 
	C64.837425,106.312065 65.313217,108.751175 66.562790,110.351158 
	C67.310844,111.308983 69.759949,110.938309 71.929718,110.578560 
M168.162628,14.110056 
	C168.622482,15.058415 169.061295,16.811012 169.545639,16.823681 
	C172.529984,16.901737 175.524582,16.587297 178.513153,16.403542 
	C178.009857,12.248644 175.690338,11.540160 168.162628,14.110056 
z"/>
<path fill="#506079" opacity="1.000000" stroke="none" 
	d="
M77.043961,325.424286 
	C76.594238,321.328125 76.069717,317.545227 76.066040,313.761810 
	C75.997849,243.642960 75.984978,173.524048 75.994797,103.405144 
	C75.995239,100.263214 75.940376,97.044327 76.558990,93.992577 
	C79.449425,79.733452 88.525795,70.775208 101.016510,63.861538 
	C128.780212,48.494198 156.108185,32.340855 183.692886,16.646990 
	C186.653778,14.962441 190.136871,14.195771 193.782028,12.980844 
	C194.186325,12.958374 194.065369,13.017101 194.188080,13.219881 
	C194.882538,13.613545 195.454285,13.804431 196.026016,13.995316 
	C201.532059,16.161173 202.895401,20.846579 202.949341,26.024576 
	C203.101700,40.652557 203.063705,55.282532 203.098572,69.911728 
	C203.159973,95.678726 203.219803,121.445724 203.007477,147.627945 
	C202.734665,148.043167 202.423843,148.110809 202.153290,147.867172 
	C200.806793,146.209595 199.730850,144.795639 198.732925,142.907059 
	C198.639648,136.617401 198.336227,130.802765 198.319214,124.987297 
	C198.229141,94.175453 198.214096,63.363388 198.160919,32.551422 
	C198.157471,30.554371 198.246399,28.528591 197.953934,26.566622 
	C197.365356,22.617939 193.927444,19.630852 190.360641,20.367353 
	C187.186646,21.022743 183.968704,22.087299 181.132019,23.634636 
	C173.432495,27.834541 165.856430,32.273926 158.364410,36.836727 
	C152.981720,40.114910 147.052902,42.416145 144.011383,49.048317 
	C142.015793,53.399803 138.038879,57.464096 131.929443,53.560661 
	C131.356293,53.194462 129.880417,53.915131 128.989487,54.422398 
	C119.375656,59.896152 109.877792,65.579048 100.180847,70.899719 
	C91.492653,75.666908 83.949280,81.240944 81.665909,92.098679 
	C81.258125,94.752075 81.013260,97.065979 81.010796,99.380135 
	C80.986755,122.007759 80.972519,144.635498 81.018860,167.263077 
	C81.049515,182.231140 81.183609,197.199020 81.227371,212.622833 
	C81.177368,229.744934 81.167961,246.411163 81.166367,263.077393 
	C81.164787,279.577026 81.036919,296.078217 81.225609,312.575745 
	C81.334167,322.067444 86.925766,325.289124 95.076485,320.623535 
	C124.852707,303.579315 154.639496,286.550232 184.238052,269.201111 
	C192.890869,264.129272 198.236099,256.174103 198.305099,245.840195 
	C198.479752,219.679749 198.290665,193.516876 198.247284,167.354965 
	C199.970337,168.376236 201.693375,169.397507 203.597382,170.685516 
	C203.800232,193.422974 203.857147,215.893707 203.832520,238.364334 
	C203.814026,255.235458 196.787994,268.009705 181.907974,276.489075 
	C153.434006,292.714935 125.059441,309.115997 96.704239,325.548950 
	C90.126884,329.360748 83.759689,330.666870 77.043961,325.424286 
z"/>
<path fill="#8C4B55" opacity="1.000000" stroke="none" 
	d="
M301.933228,113.588486 
	C301.721863,115.993355 301.403870,118.022202 300.999695,120.416672 
	C300.572723,119.270294 300.231873,117.758278 299.919464,116.372398 
	C297.120850,118.197090 294.384796,119.981010 290.914673,121.874268 
	C283.042145,122.053650 281.156189,120.216782 280.986511,113.028915 
	C280.766235,103.697937 277.465332,101.639305 268.239807,106.523811 
	C268.443665,103.427940 268.048767,100.833557 268.878326,98.719673 
	C270.342041,94.989792 269.431732,92.714996 265.957886,91.155785 
	C260.362946,87.383621 259.366180,83.975136 263.567047,79.999321 
	C270.745026,73.205826 279.782623,71.799545 289.126221,73.437973 
	C297.773682,74.954338 304.033569,80.642006 305.295441,89.038979 
	C306.259521,95.454391 304.111206,102.352531 303.222870,109.019356 
	C303.031799,110.453613 302.306061,111.816620 301.933228,113.588486 
z"/>
<path fill="#4D5D76" opacity="1.000000" stroke="none" 
	d="
M271.260315,310.508606 
	C275.577209,309.502167 279.894775,308.929688 284.627502,308.769531 
	C285.363159,311.129730 285.754669,313.068970 285.992676,315.026855 
	C287.723907,329.267609 289.083466,343.564636 291.269196,357.734619 
	C292.474670,365.549896 292.041138,372.862885 288.565552,380.071655 
	C283.602661,378.626068 279.051361,377.185547 274.500031,375.745026 
	C273.999725,360.009155 273.603821,344.268890 272.945251,328.539642 
	C272.699066,322.660767 271.840393,316.807495 271.260315,310.508606 
z"/>
<path fill="#D5DBEA" opacity="1.000000" stroke="none" 
	d="
M255.963013,177.505615 
	C261.105865,171.330338 266.261261,165.612762 272.465240,158.732254 
	C271.938141,168.545731 271.801941,177.218781 270.922791,185.815887 
	C269.936218,195.463394 268.601837,205.105331 266.747040,214.618729 
	C266.041565,218.237335 263.468811,221.491882 261.391357,224.946716 
	C259.557922,213.086395 258.020020,201.198730 256.637939,189.292969 
	C256.202423,185.541351 256.184540,181.741241 255.963013,177.505615 
z"/>
<path fill="#47576D" opacity="1.000000" stroke="none" 
	d="
M288.977081,380.076691 
	C292.041138,372.862885 292.474670,365.549896 291.269196,357.734619 
	C289.083466,343.564636 287.723907,329.267609 285.992676,315.026855 
	C285.754669,313.068970 285.363159,311.129730 285.028076,308.795624 
	C288.680359,307.684021 292.347260,306.958679 296.409149,306.698547 
	C297.202362,312.454468 297.957397,317.747253 297.926880,323.035522 
	C297.856079,335.317047 297.406158,347.596405 296.985657,360.227600 
	C296.855072,361.316040 296.848633,362.053467 296.842224,362.790924 
	C296.331848,368.608032 295.821442,374.425140 294.749481,380.601135 
	C292.450989,380.665588 290.714020,380.371155 288.977081,380.076691 
z"/>
<path fill="#9FAAC9" opacity="1.000000" stroke="none" 
	d="
M288.565552,380.071655 
	C290.714020,380.371155 292.450989,380.665588 294.584381,380.972656 
	C295.037537,384.181213 295.537994,387.462311 294.948364,390.534180 
	C294.685791,391.902252 292.131042,393.934753 290.781464,393.814575 
	C280.281860,392.879761 269.794342,391.676147 259.377441,390.072662 
	C257.573334,389.794952 255.475739,387.520020 254.648987,385.662354 
	C253.214767,382.439880 255.946976,379.851776 260.496399,380.013763 
	C265.430511,380.189423 270.127960,379.858063 274.268250,376.063416 
	C279.051361,377.185547 283.602661,378.626068 288.565552,380.071655 
z"/>
<path fill="#48586F" opacity="1.000000" stroke="none" 
	d="
M315.779480,298.885681 
	C318.496582,297.362030 321.213684,295.838379 324.216675,294.491669 
	C330.237396,316.799042 332.237762,339.231354 329.503845,362.460907 
	C327.046570,362.553680 325.031158,362.196136 323.010529,361.440857 
	C323.610443,356.351532 325.103149,351.570221 324.639984,346.986572 
	C323.602905,336.723572 321.752167,326.530151 319.916992,316.365387 
	C318.854736,310.481598 317.179077,304.708588 315.779480,298.885681 
z"/>
<path fill="#A0AAC9" opacity="1.000000" stroke="none" 
	d="
M323.015717,361.838623 
	C325.031158,362.196136 327.046570,362.553680 329.451050,362.893860 
	C329.709076,365.964508 330.677856,369.965729 329.106689,371.857849 
	C327.798889,373.432800 323.489105,372.827179 320.544586,372.636780 
	C317.968414,372.470184 315.469360,371.244659 312.887726,371.000824 
	C306.644684,370.411072 301.305481,368.296143 297.170715,362.935913 
	C296.848633,362.053467 296.855072,361.316040 297.278931,359.982941 
	C299.144562,358.887573 300.576660,358.023529 302.044098,357.958649 
	C305.959229,357.785522 309.889587,357.956024 314.139435,358.131775 
	C317.315247,359.461945 320.165466,360.650269 323.015717,361.838623 
z"/>
<path fill="#F3D4D2" opacity="1.000000" stroke="none" 
	d="
M265.978668,91.604897 
	C269.431732,92.714996 270.342041,94.989792 268.878326,98.719673 
	C268.048767,100.833557 268.443665,103.427940 268.239807,106.523811 
	C277.465332,101.639305 280.766235,103.697937 280.986511,113.028915 
	C281.156189,120.216782 283.042145,122.053650 290.601898,122.025177 
	C285.720673,125.067146 280.993744,126.182976 275.451538,121.452995 
	C273.339386,119.650383 269.027252,119.626411 267.928467,116.188309 
	C266.599976,112.031410 265.638245,107.662300 265.273102,103.321495 
	C264.961090,99.612282 265.716278,95.813293 265.978668,91.604897 
z"/>
<path fill="#D6DBEB" opacity="1.000000" stroke="none" 
	d="
M320.409729,175.006317 
	C320.462860,161.205887 320.925018,147.407974 321.681030,133.318695 
	C323.981628,144.221619 326.438721,155.360886 327.816498,166.632080 
	C328.573059,172.821625 326.215790,174.720856 320.409729,175.006317 
z"/>
<path fill="#83D673" opacity="1.000000" stroke="none" 
	d="
M202.423843,148.110809 
	C202.423843,148.110809 202.734665,148.043167 202.884903,148.092575 
	C203.969284,148.559982 204.903427,148.977966 205.928207,149.692413 
	C202.416809,154.113342 198.814774,158.237808 194.783722,162.595581 
	C193.935623,162.303604 193.516510,161.778305 193.310806,160.953125 
	C193.571518,160.413910 193.618820,160.174591 193.814423,159.615326 
	C196.783081,155.567200 199.603470,151.839005 202.423843,148.110809 
z"/>
<path fill="#152137" opacity="1.000000" stroke="none" 
	d="
M195.924530,13.690985 
	C195.454285,13.804431 194.882538,13.613545 194.148407,13.165619 
	C194.598343,13.067936 195.210693,13.227294 195.924530,13.690985 
z"/>
<path fill="#FDFDFD" opacity="1.000000" stroke="none" 
	d="
M193.097397,161.253006 
	C193.516510,161.778305 193.935623,162.303604 194.678940,162.923340 
	C196.007385,164.237900 197.011627,165.457993 198.131561,167.016541 
	C198.290665,193.516876 198.479752,219.679749 198.305099,245.840195 
	C198.236099,256.174103 192.890869,264.129272 184.238052,269.201111 
	C154.639496,286.550232 124.852707,303.579315 95.076485,320.623535 
	C86.925766,325.289124 81.334167,322.067444 81.225609,312.575745 
	C81.036919,296.078217 81.164787,279.577026 81.166367,263.077393 
	C81.167961,246.411163 81.177368,229.744934 81.511177,212.588791 
	C82.307770,211.805878 82.776535,211.512894 83.577789,211.119171 
	C98.462784,202.668289 113.007233,194.304031 127.569801,185.971420 
	C147.031708,174.835495 166.507660,163.724121 185.988708,153.001328 
	C187.732758,155.273575 189.465714,157.146667 190.982635,159.301102 
	C181.754959,164.794449 172.743332,170.006439 163.731705,175.218430 
	C164.079178,175.793686 164.426651,176.368942 164.774124,176.944199 
	C174.215210,171.713806 183.656311,166.483398 193.097397,161.253006 
M101.985558,269.449371 
	C105.165222,267.631256 108.405266,265.907745 111.489220,263.939667 
	C112.465607,263.316559 113.661148,262.050751 113.677238,261.061493 
	C113.838852,251.121445 113.775566,241.177765 113.775566,230.061539 
	C103.859627,235.817810 95.236641,240.772278 86.696312,245.865341 
	C85.896233,246.342468 85.176178,247.689697 85.165550,248.641281 
	C85.054977,258.540283 85.097458,268.441010 85.097458,279.105011 
	C91.013069,275.731201 96.185432,272.781281 101.985558,269.449371 
M140.896622,214.416885 
	C136.434540,216.973511 131.918320,219.442673 127.548111,222.147736 
	C126.444069,222.831131 125.087791,224.254181 125.066582,225.360703 
	C124.874855,235.361649 124.954361,245.367798 124.954361,256.228149 
	C134.358170,250.751709 142.810654,245.872147 151.196899,240.881256 
	C152.064194,240.365082 153.095673,239.193695 153.107513,238.313644 
	C153.242111,228.309219 153.192978,218.302338 153.192978,207.425720 
	C148.675491,209.992279 145.104172,212.021301 140.896622,214.416885 
M164.953873,209.571747 
	C164.953873,216.968506 164.953873,224.365250 164.953873,233.008118 
	C174.712875,227.354187 183.418869,222.339691 192.069412,217.231323 
	C192.636246,216.896606 193.069794,215.845062 193.074554,215.123703 
	C193.139709,205.229706 193.118484,195.335159 193.118484,184.420975 
	C185.504593,188.779556 178.995255,193.071213 172.004364,196.329727 
	C166.363388,198.959061 163.766800,202.468643 164.953873,209.571747 
M170.364349,261.789978 
	C169.982727,262.589844 169.601120,263.389709 169.219513,264.189575 
	C178.205078,259.429810 187.263138,255.503723 195.087601,249.684158 
	C194.752045,249.145081 194.416473,248.606018 194.080917,248.066956 
	C186.362915,252.500397 178.644913,256.933838 170.364349,261.789978 
M85.888023,303.356476 
	C85.621414,304.033417 85.354805,304.710358 84.974319,305.676453 
	C93.849022,302.947052 109.215935,293.007721 109.409401,289.721069 
	C101.665352,294.195801 94.074677,298.581909 85.888023,303.356476 
M174.980896,247.504257 
	C181.452209,243.686722 187.923523,239.869171 194.394836,236.051636 
	C194.050507,235.495483 193.706161,234.939316 193.361816,234.383163 
	C183.200089,240.289810 173.038345,246.196457 162.876617,252.103104 
	C163.162079,252.619797 163.447556,253.136475 163.733017,253.653152 
	C167.266068,251.719131 170.799133,249.785110 174.980896,247.504257 
M144.770248,200.279739 
	C140.890366,202.697250 137.010483,205.114746 133.130585,207.532257 
	C139.652466,207.349167 154.398453,198.083603 155.210693,194.391907 
	C151.657791,196.410843 148.540817,198.182068 144.770248,200.279739 
M174.025436,238.470718 
	C173.093582,239.320038 172.161728,240.169373 171.229889,241.018707 
	C179.486160,239.218109 193.753983,229.944626 194.081161,226.842438 
	C187.473465,230.657349 181.048309,234.366867 174.025436,238.470718 
M144.365921,195.850571 
	C146.602325,194.467224 148.838745,193.083862 151.075150,191.700500 
	C150.774216,191.239487 150.473267,190.778458 150.172318,190.317429 
	C141.096039,195.618271 132.019745,200.919113 122.943451,206.219955 
	C123.249092,206.751877 123.554726,207.283798 123.860367,207.815720 
	C130.474670,203.931549 137.088974,200.047379 144.365921,195.850571 
M153.066574,181.552017 
	C147.425171,184.900269 141.783768,188.248520 136.142365,191.596771 
	C136.461563,192.103745 136.780777,192.610718 137.099976,193.117676 
	C145.171341,188.423325 153.242691,183.728973 161.314041,179.034622 
	C161.016663,178.515060 160.719299,177.995499 160.421921,177.475922 
	C158.176300,178.705017 155.930664,179.934097 153.066574,181.552017 
M93.707962,218.159042 
	C98.504486,215.347137 103.301003,212.535233 108.097527,209.723328 
	C107.872612,209.375488 107.647697,209.027664 107.422783,208.679840 
	C100.071533,211.073364 85.872375,220.213913 85.818985,222.957214 
	C88.347336,221.422638 90.716385,219.984756 93.707962,218.159042 
M145.366623,271.833557 
	C147.892395,270.149048 150.418182,268.464569 152.943954,266.780060 
	C152.674347,266.375793 152.404724,265.971527 152.135117,265.567261 
	C140.456284,270.942719 136.160049,273.877869 135.444061,277.636627 
	C138.816574,275.649384 141.766327,273.911224 145.366623,271.833557 
M116.944839,202.433777 
	C114.982368,203.737152 113.019897,205.040543 111.057426,206.343933 
	C111.374588,206.832047 111.691757,207.320160 112.008919,207.808258 
	C119.111191,203.535004 126.213463,199.261765 133.315735,194.988510 
	C133.024445,194.507584 132.733139,194.026672 132.441849,193.545746 
	C127.466179,196.359802 122.490517,199.173859 116.944839,202.433777 
M106.156227,279.855743 
	C106.403198,279.200226 106.650177,278.544678 107.320183,276.766357 
	C99.562569,282.260468 91.444450,285.007202 85.214172,290.551270 
	C85.495171,290.978546 85.776169,291.405823 86.057175,291.833069 
	C92.562645,287.957153 99.068115,284.081207 106.156227,279.855743 
M181.993988,174.507645 
	C186.111099,171.985641 190.228226,169.463623 194.345337,166.941605 
	C193.990829,166.394104 193.636322,165.846588 193.281799,165.299072 
	C187.172119,168.938171 181.062439,172.577271 174.952759,176.216370 
	C175.254135,176.736603 175.555511,177.256821 175.856888,177.777054 
	C177.688187,176.801178 179.519485,175.825287 181.993988,174.507645 
M174.941895,254.536758 
	C175.641724,253.776505 176.341553,253.016251 177.041382,252.255997 
	C176.779358,251.997009 176.517334,251.738022 176.255310,251.479034 
	C169.516525,255.474854 162.777740,259.470673 156.038956,263.466461 
	C156.344498,263.975677 156.650040,264.484863 156.955582,264.994049 
	C162.742767,261.620087 168.529953,258.246094 174.941895,254.536758 
M114.623764,213.169830 
	C116.044479,212.202164 117.465202,211.234482 118.885925,210.266800 
	C118.592270,209.808258 118.298607,209.349701 118.004951,208.891159 
	C112.004463,212.369263 106.003983,215.847366 100.003502,219.325455 
	C100.342796,219.910751 100.682083,220.496033 101.021378,221.081314 
	C105.342552,218.559982 109.663734,216.038651 114.623764,213.169830 
M154.036163,252.485825 
	C158.635849,249.763153 163.235535,247.040482 167.835236,244.317810 
	C167.510712,243.778336 167.186203,243.238861 166.861679,242.699402 
	C160.883575,246.216721 154.905472,249.734055 148.927368,253.251389 
	C149.204681,253.744308 149.482010,254.237228 149.759323,254.730164 
	C150.974609,254.095673 152.189880,253.461182 154.036163,252.485825 
M109.158897,277.255463 
	C113.989304,277.027618 122.664345,271.488892 123.488495,267.166107 
	C118.270340,270.559052 113.666763,273.552368 109.158897,277.255463 
M144.996811,262.493683 
	C143.352142,263.542816 141.707458,264.591980 140.062775,265.641113 
	C140.365173,266.109009 140.667572,266.576904 140.969971,267.044800 
	C146.960175,263.530121 152.950394,260.015442 158.940613,256.500763 
	C158.638092,255.967194 158.335587,255.433609 158.033081,254.900024 
	C153.900986,257.317322 149.768890,259.734619 144.996811,262.493683 
M151.496063,272.995544 
	C149.930649,274.134796 148.365250,275.274048 146.799850,276.413300 
	C147.070099,276.773621 147.340363,277.133972 147.610626,277.494293 
	C153.750244,273.863190 159.889877,270.232056 166.029510,266.600952 
	C165.721558,266.076294 165.413589,265.551636 165.105637,265.026978 
	C160.759598,267.532257 156.413559,270.037506 151.496063,272.995544 
M106.295258,284.838531 
	C104.196083,286.051880 102.096909,287.265228 99.997734,288.478577 
	C100.319054,289.000366 100.640381,289.522125 100.961700,290.043884 
	C106.734627,286.707458 112.507545,283.371033 118.280472,280.034607 
	C117.943504,279.444580 117.606544,278.854584 117.269585,278.264557 
	C113.817406,280.327515 110.365219,282.390472 106.295258,284.838531 
M163.510040,184.994598 
	C166.770508,182.953171 170.030991,180.911728 173.291458,178.870300 
	C172.968582,178.402649 172.645721,177.934998 172.322845,177.467346 
	C166.468475,181.016891 160.614120,184.566437 154.759750,188.115982 
	C155.066910,188.596420 155.374084,189.076874 155.681244,189.557312 
	C158.099518,188.186798 160.517807,186.816284 163.510040,184.994598 
M127.609421,279.204132 
	C123.311646,281.844757 119.013863,284.485382 114.716080,287.126038 
	C115.062767,287.666534 115.409462,288.207062 115.756149,288.747559 
	C120.864449,285.726013 125.972755,282.704468 131.081055,279.682892 
	C130.839981,279.216553 130.598907,278.750214 130.357834,278.283875 
	C129.649506,278.492889 128.941177,278.701874 127.609421,279.204132 
M131.004349,270.492554 
	C127.962593,272.406647 124.920830,274.320770 121.879074,276.234863 
	C122.209740,276.756042 122.540405,277.277191 122.871071,277.798340 
	C127.892822,274.702240 132.914581,271.606171 137.936325,268.510071 
	C137.676376,268.084351 137.416443,267.658630 137.156494,267.232910 
	C135.320343,268.205627 133.484192,269.178314 131.004349,270.492554 
M183.671844,247.132874 
	C182.463165,247.971130 181.254486,248.809387 180.045807,249.647644 
	C186.059357,249.300156 192.950821,244.845993 194.394272,240.931274 
	C190.791046,243.040390 187.555069,244.934540 183.671844,247.132874 
M140.572281,260.192261 
	C141.315964,259.456055 142.059647,258.719849 142.803329,257.983673 
	C142.523544,257.679993 142.243759,257.376343 141.963974,257.072693 
	C136.932785,260.088379 131.901611,263.104095 126.870430,266.119781 
	C127.157623,266.600616 127.444817,267.081421 127.732010,267.562256 
	C131.806793,265.218597 135.881577,262.874939 140.572281,260.192261 
M191.460541,176.032806 
	C192.616989,175.119843 193.773453,174.206879 194.929901,173.293900 
	C194.624588,172.869934 194.319260,172.445953 194.013947,172.021988 
	C190.267853,174.372925 186.521774,176.723862 182.775696,179.074783 
	C183.078613,179.568481 183.381531,180.062164 183.684448,180.555862 
	C186.090530,179.193344 188.496613,177.830811 191.460541,176.032806 
M165.613068,188.206665 
	C162.639893,190.189835 159.666702,192.173019 156.693512,194.156189 
	C157.011002,194.615417 157.328506,195.074631 157.645996,195.533859 
	C161.444366,193.221252 165.242722,190.908646 169.041092,188.596024 
	C168.812347,188.159927 168.583618,187.723816 168.354889,187.287720 
	C167.648758,187.497177 166.942627,187.706635 165.613068,188.206665 
M87.609123,297.912994 
	C90.419182,296.156799 93.229233,294.400635 96.039291,292.644440 
	C95.777466,292.208679 95.515640,291.772949 95.253807,291.337189 
	C92.113907,293.169678 88.974007,295.002167 85.834099,296.834625 
	C86.248009,297.332550 86.661919,297.830505 87.609123,297.912994 
M180.299072,182.035431 
	C180.238586,181.479492 180.178101,180.923538 180.117615,180.367599 
	C177.317062,181.950119 174.516525,183.532639 171.715988,185.115158 
	C172.069412,185.644089 172.422836,186.173019 172.776260,186.701965 
	C175.122391,185.304596 177.468521,183.907227 180.299072,182.035431 
M142.514420,280.237396 
	C142.921478,279.809204 143.328552,279.381012 143.735626,278.952820 
	C143.478302,278.595795 143.220963,278.238800 142.963638,277.881775 
	C139.994568,279.748291 137.025482,281.614777 134.056412,283.481293 
	C134.334641,283.944672 134.612869,284.408051 134.891113,284.871429 
	C137.247879,283.456818 139.604645,282.042206 142.514420,280.237396 
M89.095299,225.535065 
	C87.771568,226.654861 86.447845,227.774643 85.124115,228.894424 
	C85.432022,229.239624 85.739922,229.584824 86.047821,229.930023 
	C88.956024,228.049500 91.864220,226.168976 94.772415,224.288452 
	C94.538895,223.909668 94.305367,223.530884 94.071846,223.152100 
	C92.616165,223.820541 91.160492,224.488983 89.095299,225.535065 
z"/>
<path fill="#4E5E76" opacity="1.000000" stroke="none" 
	d="
M323.010529,361.440857 
	C320.165466,360.650269 317.315247,359.461945 314.150391,357.727112 
	C311.531006,345.514984 309.260803,333.842438 306.907349,322.186676 
	C305.677948,316.097931 304.302185,310.038757 302.992523,303.966217 
	C307.021088,302.301727 311.049652,300.637268 315.428833,298.929260 
	C317.179077,304.708588 318.854736,310.481598 319.916992,316.365387 
	C321.752167,326.530151 323.602905,336.723572 324.639984,346.986572 
	C325.103149,351.570221 323.610443,356.351532 323.010529,361.440857 
z"/>
<path fill="#FBFCFC" opacity="1.000000" stroke="none" 
	d="
M303.019592,303.980469 
	C304.302185,310.038757 305.677948,316.097931 306.907349,322.186676 
	C309.260803,333.842438 311.531006,345.514984 313.824829,357.585266 
	C309.889587,357.956024 305.959229,357.785522 302.044098,357.958649 
	C300.576660,358.023529 299.144562,358.887573 297.403137,359.631958 
	C297.406158,347.596405 297.856079,335.317047 297.926880,323.035522 
	C297.957397,317.747253 297.202362,312.454468 296.793457,306.731995 
	C297.384705,304.107025 297.986633,301.913727 298.880219,298.657776 
	C299.976685,300.327515 300.730011,301.474670 301.821442,303.118591 
	C302.451385,303.761841 302.743225,303.908386 303.035095,304.054932 
	C303.035095,304.054932 303.046692,303.994751 303.019592,303.980469 
z"/>
<path fill="#4E5E76" opacity="1.000000" stroke="none" 
	d="
M302.981995,303.795319 
	C302.743225,303.908386 302.451385,303.761841 302.108215,303.315979 
	C302.347595,303.189697 302.638245,303.362701 302.981995,303.795319 
z"/>
<path fill="#9AA3C0" opacity="1.000000" stroke="none" 
	d="
M69.272018,115.554970 
	C70.138374,116.375885 71.095482,116.893768 71.209671,117.556816 
	C71.561150,119.597549 71.843002,121.728745 71.564491,123.743591 
	C71.496040,124.238777 68.389107,125.065712 68.051132,124.643028 
	C66.506172,122.710854 65.170181,120.472649 64.463638,118.131744 
	C64.329834,117.688431 67.390526,116.280937 69.272018,115.554970 
z"/>
<path fill="#9AA3C0" opacity="1.000000" stroke="none" 
	d="
M71.687096,110.871658 
	C69.759949,110.938309 67.310844,111.308983 66.562790,110.351158 
	C65.313217,108.751175 64.837425,106.312065 64.769821,104.202667 
	C64.754517,103.725044 68.368774,102.217766 69.238838,102.796974 
	C71.811089,104.509354 74.034027,106.967926 71.687096,110.871658 
z"/>
<path fill="#E6EAF2" opacity="1.000000" stroke="none" 
	d="
M168.481354,13.843517 
	C175.690338,11.540160 178.009857,12.248644 178.513153,16.403542 
	C175.524582,16.587297 172.529984,16.901737 169.545639,16.823681 
	C169.061295,16.811012 168.622482,15.058415 168.481354,13.843517 
z"/>
<path fill="#5295FF" opacity="1.000000" stroke="none" 
	d="
M185.977600,152.602203 
	C166.507660,163.724121 147.031708,174.835495 127.569801,185.971420 
	C113.007233,194.304031 98.462784,202.668289 83.243263,210.826294 
	C82.384811,208.672440 82.028984,206.710999 82.026222,204.749054 
	C81.973145,167.085846 81.961502,129.422562 81.941307,91.759308 
	C83.949280,81.240944 91.492653,75.666908 100.180847,70.899719 
	C109.877792,65.579048 119.375656,59.896152 128.989487,54.422398 
	C129.880417,53.915131 131.356293,53.194462 131.929443,53.560661 
	C138.038879,57.464096 142.015793,53.399803 144.011383,49.048317 
	C147.052902,42.416145 152.981720,40.114910 158.364410,36.836727 
	C165.856430,32.273926 173.432495,27.834541 181.132019,23.634636 
	C183.968704,22.087299 187.186646,21.022743 190.360641,20.367353 
	C193.927444,19.630852 197.365356,22.617939 197.953934,26.566622 
	C198.246399,28.528591 198.157471,30.554371 198.160919,32.551422 
	C198.214096,63.363388 198.229141,94.175453 198.319214,124.987297 
	C198.336227,130.802765 198.639648,136.617401 198.397141,142.822662 
	C194.788803,141.181534 191.718018,138.899490 188.343292,137.232971 
	C186.836090,136.488693 184.718170,136.981171 182.877411,136.912369 
	C183.556320,138.737686 183.834534,140.899399 185.014084,142.304459 
	C186.540863,144.123108 188.786667,145.338120 190.953766,146.988876 
	C189.229813,148.933563 187.603699,150.767883 185.977600,152.602203 
M101.066772,84.045403 
	C101.066772,84.045403 100.755852,83.731995 101.232391,83.183083 
	C102.400581,80.850258 103.568764,78.517433 104.736954,76.184608 
	C104.218498,75.873131 103.700043,75.561653 103.181587,75.250168 
	C98.965576,79.669037 89.299774,78.748184 90.500313,88.768997 
	C91.762634,88.649010 92.752312,88.554939 93.741997,88.460869 
	C94.041016,88.883057 94.340034,89.305252 94.639053,89.727440 
	C92.877251,90.564178 91.115456,91.400925 89.353653,92.237663 
	C89.842812,92.731026 90.331963,93.224396 90.821121,93.717758 
	C95.302383,90.983391 99.783638,88.249016 104.264893,85.514648 
	C104.087906,85.123352 103.910912,84.732063 103.733917,84.340767 
	C102.954239,84.340767 102.174568,84.340767 101.066772,84.045403 
M121.744232,96.607430 
	C120.047195,97.661446 118.406914,98.823334 116.643509,99.751221 
	C107.976379,104.311760 103.757233,111.367477 104.097221,121.233078 
	C104.292259,126.892517 103.997772,132.569305 104.212723,138.227295 
	C104.279572,139.987045 105.293938,141.710785 105.874535,143.451019 
	C107.616249,141.920166 109.756790,140.646881 110.967010,138.772797 
	C111.853149,137.400589 111.669342,135.241547 111.697395,133.429123 
	C111.779892,128.097504 111.691917,122.763336 111.764923,117.431458 
	C111.779488,116.367325 112.211304,115.308899 112.450714,114.247849 
	C112.906799,114.310944 113.362877,114.374039 113.818962,114.437134 
	C113.818962,116.210403 113.814667,117.983681 113.819611,119.756935 
	C113.869339,137.588593 113.864929,155.420837 114.053596,173.251022 
	C114.073456,175.127762 115.233170,176.992416 115.864059,178.862686 
	C117.566864,177.071930 119.550095,175.460800 120.858910,173.417648 
	C121.555328,172.330475 121.130455,170.495407 121.132553,168.997818 
	C121.147026,158.665451 121.085655,148.332413 121.199257,138.001266 
	C121.216599,136.424057 122.012230,134.855408 122.447884,133.282791 
	C123.009392,133.398254 123.570892,133.513718 124.132393,133.629181 
	C124.132393,135.424057 124.132210,137.218918 124.132423,139.013794 
	C124.133606,149.012894 124.077171,159.012726 124.206604,169.010162 
	C124.223457,170.312180 125.197250,171.601791 125.727798,172.897156 
	C127.096642,172.162018 129.191055,171.747452 129.686356,170.626373 
	C130.786255,168.136780 131.625504,165.292542 131.622681,162.593857 
	C131.603546,144.267441 131.326782,125.941353 131.172974,107.614830 
	C131.160675,106.149490 131.447372,104.681641 131.595123,103.214958 
	C132.131012,103.250504 132.666901,103.286041 133.202789,103.321579 
	C133.202789,109.867889 133.112396,116.416512 133.280380,122.958511 
	C133.313293,124.239975 134.346649,125.495750 134.918579,126.763367 
	C136.177673,126.088806 137.647842,125.631805 138.633606,124.675491 
	C139.531006,123.804916 140.412888,122.397133 140.424347,121.217621 
	C140.509888,112.414146 140.752243,103.583183 140.159042,94.814034 
	C139.850128,90.247490 136.370804,88.850037 132.089523,90.645729 
	C129.672302,91.659569 127.349693,92.898956 124.653755,93.328293 
	C125.157715,92.472008 125.676964,91.624298 126.163132,90.758026 
	C129.102371,85.520683 129.104248,80.309479 126.175461,79.109596 
	C123.183441,77.883804 118.336121,81.788872 116.537994,86.873680 
	C114.519081,92.582809 116.197716,95.363922 121.744232,96.607430 
M175.730850,145.148010 
	C175.730850,143.296616 175.730850,141.445236 175.730850,139.261414 
	C167.185730,143.430054 167.185730,143.430054 168.587875,152.734970 
	C171.326584,150.127747 173.523270,148.036484 175.730850,145.148010 
M173.978180,133.288467 
	C174.707474,130.429626 175.436768,127.570770 176.384216,123.856781 
	C167.489944,127.561699 167.294632,127.895638 168.462067,136.206512 
	C170.178940,135.327271 171.750488,134.522446 173.978180,133.288467 
M146.727386,91.979935 
	C152.641342,88.060051 159.416199,85.350922 164.315552,79.960960 
	C157.719879,82.808510 151.562592,86.306343 145.506561,89.971489 
	C144.050476,90.852737 143.221222,92.209473 146.727386,91.979935 
M167.950439,75.898056 
	C167.950439,77.815430 167.950439,79.732803 167.950439,81.813576 
	C175.384354,79.239563 175.965897,78.185265 174.349365,69.720009 
	C172.015610,71.682404 169.996628,73.380119 167.950439,75.898056 
M163.074646,134.024002 
	C156.799530,137.881516 149.862503,140.766281 144.518509,146.028091 
	C151.178329,143.299805 157.332092,139.795822 163.401505,136.151382 
	C163.816757,135.902039 163.600311,134.600662 163.074646,134.024002 
M167.753967,64.509163 
	C167.937347,65.680283 168.120728,66.851395 168.318787,68.116341 
	C175.785675,65.231964 176.175659,64.488274 174.271378,56.968590 
	C171.557373,58.805874 167.268723,58.747982 167.753967,64.509163 
M161.971558,152.534744 
	C162.935944,151.730408 163.900330,150.926086 164.864716,150.121750 
	C164.558365,149.732498 164.252014,149.343246 163.945663,148.953995 
	C157.372833,152.815277 150.799988,156.676559 144.227158,160.537827 
	C144.542923,161.083618 144.858688,161.629395 145.174469,162.175171 
	C150.575485,159.094635 155.976517,156.014084 161.971558,152.534744 
M147.175735,75.616470 
	C146.210754,76.415291 145.245758,77.214111 144.280777,78.012924 
	C144.595810,78.400917 144.910843,78.788902 145.225876,79.176895 
	C151.600250,75.268356 158.448196,72.096245 164.550369,67.764427 
	C164.215973,67.225929 163.881577,66.687424 163.547180,66.148926 
	C158.292068,69.176949 153.036957,72.204971 147.175735,75.616470 
M187.231369,34.669754 
	C189.400574,34.348618 191.569778,34.027481 193.724518,33.708485 
	C193.429504,31.970425 193.242508,30.691097 192.991669,29.424406 
	C192.253830,25.698370 189.914383,24.913733 187.880920,27.995764 
	C186.802490,29.630302 187.020035,32.119904 187.231369,34.669754 
z"/>
<path fill="#E7C9CA" opacity="1.000000" stroke="none" 
	d="
M185.988708,153.001343 
	C187.603699,150.767883 189.229813,148.933563 190.953766,146.988876 
	C188.786667,145.338120 186.540863,144.123108 185.014084,142.304459 
	C183.834534,140.899399 183.556320,138.737686 182.877411,136.912369 
	C184.718170,136.981171 186.836090,136.488693 188.343292,137.232971 
	C191.718018,138.899490 194.788803,141.181534 198.319138,143.297302 
	C199.730850,144.795639 200.806793,146.209595 202.153290,147.867172 
	C199.603470,151.839005 196.783081,155.567200 193.573883,159.506073 
	C192.522934,159.484406 191.860809,159.252075 191.198669,159.019760 
	C189.465714,157.146667 187.732758,155.273575 185.988708,153.001343 
z"/>
<path fill="#6FA6FD" opacity="1.000000" stroke="none" 
	d="
M81.665909,92.098679 
	C81.961502,129.422562 81.973145,167.085846 82.026222,204.749054 
	C82.028984,206.710999 82.384811,208.672440 82.910782,210.927017 
	C82.776535,211.512894 82.307770,211.805878 81.555199,212.132935 
	C81.183609,197.199020 81.049515,182.231140 81.018860,167.263077 
	C80.972519,144.635498 80.986755,122.007759 81.010796,99.380135 
	C81.013260,97.065979 81.258125,94.752075 81.665909,92.098679 
z"/>
<path fill="#FA728D" opacity="1.000000" stroke="none" 
	d="
M190.982635,159.301102 
	C191.860809,159.252075 192.522934,159.484406 193.425598,159.825989 
	C193.618820,160.174591 193.571518,160.413910 193.310806,160.953125 
	C183.656311,166.483398 174.215210,171.713806 164.774124,176.944199 
	C164.426651,176.368942 164.079178,175.793686 163.731705,175.218430 
	C172.743332,170.006439 181.754959,164.794449 190.982635,159.301102 
z"/>
<path fill="#F45775" opacity="1.000000" stroke="none" 
	d="
M101.671677,269.640381 
	C96.185432,272.781281 91.013069,275.731201 85.097458,279.105011 
	C85.097458,268.441010 85.054977,258.540283 85.165550,248.641281 
	C85.176178,247.689697 85.896233,246.342468 86.696312,245.865341 
	C95.236641,240.772278 103.859627,235.817810 113.775566,230.061539 
	C113.775566,241.177765 113.838852,251.121445 113.677238,261.061493 
	C113.661148,262.050751 112.465607,263.316559 111.489220,263.939667 
	C108.405266,265.907745 105.165222,267.631256 101.671677,269.640381 
z"/>
<path fill="#77D767" opacity="1.000000" stroke="none" 
	d="
M141.214722,214.233612 
	C145.104172,212.021301 148.675491,209.992279 153.192978,207.425720 
	C153.192978,218.302338 153.242111,228.309219 153.107513,238.313644 
	C153.095673,239.193695 152.064194,240.365082 151.196899,240.881256 
	C142.810654,245.872147 134.358170,250.751709 124.954361,256.228149 
	C124.954361,245.367798 124.874855,235.361649 125.066582,225.360703 
	C125.087791,224.254181 126.444069,222.831131 127.548111,222.147736 
	C131.918320,219.442673 136.434540,216.973511 141.214722,214.233612 
M144.941101,223.244431 
	C144.871887,230.216095 138.247604,229.075302 134.427811,232.858810 
	C134.206802,228.910751 134.054520,226.190567 133.902237,223.470383 
	C133.300079,223.465820 132.697906,223.461258 132.095749,223.456696 
	C131.791809,230.858276 131.906540,238.274109 132.777512,245.773422 
	C133.954544,242.465363 133.331253,238.311996 135.090332,235.886246 
	C137.069763,233.156601 141.197479,231.984818 144.701447,229.955414 
	C144.919678,233.445694 145.085663,236.100174 145.251633,238.754654 
	C145.682343,238.731766 146.113052,238.708862 146.543762,238.685959 
	C146.543762,231.298706 146.543762,223.911469 146.543762,216.524216 
	C146.189606,216.481003 145.835449,216.437775 145.481277,216.394547 
	C145.301270,218.391739 145.121262,220.388916 144.941101,223.244431 
z"/>
<path fill="#FFD16F" opacity="1.000000" stroke="none" 
	d="
M164.953827,209.085785 
	C163.766800,202.468643 166.363388,198.959061 172.004364,196.329727 
	C178.995255,193.071213 185.504593,188.779556 193.118484,184.420975 
	C193.118484,195.335159 193.139709,205.229706 193.074554,215.123703 
	C193.069794,215.845062 192.636246,216.896606 192.069412,217.231323 
	C183.418869,222.339691 174.712875,227.354187 164.953873,233.008118 
	C164.953873,224.365250 164.953873,216.968506 164.953827,209.085785 
M179.492889,214.654724 
	C179.629715,214.100281 179.766541,213.545837 180.060516,212.278336 
	C182.190674,209.244492 184.320816,206.210648 186.940170,202.734589 
	C187.709503,201.532227 188.478836,200.329865 189.159500,199.266052 
	C186.762650,197.662277 184.768295,196.327805 182.471786,194.791153 
	C181.959015,196.209686 181.467545,197.569321 180.357620,199.312943 
	C179.580383,202.231674 178.803162,205.150406 177.499878,208.285355 
	C176.992096,208.822723 176.484314,209.360092 175.392746,210.196289 
	C174.276367,211.471512 173.159973,212.746735 171.470612,214.368484 
	C170.569092,215.837280 169.667572,217.306091 168.969589,218.443298 
	C171.519043,219.621292 173.591370,220.578842 176.024368,221.703033 
	C176.694199,220.247650 177.428818,218.651505 178.630783,216.696579 
	C178.760880,216.132339 178.890976,215.568085 179.492889,214.654724 
z"/>
<path fill="#70BEFE" opacity="1.000000" stroke="none" 
	d="
M170.645630,261.578613 
	C178.644913,256.933838 186.362915,252.500397 194.080917,248.066956 
	C194.416473,248.606018 194.752045,249.145081 195.087601,249.684158 
	C187.263138,255.503723 178.205078,259.429810 169.219513,264.189575 
	C169.601120,263.389709 169.982727,262.589844 170.645630,261.578613 
z"/>
<path fill="#F5637F" opacity="1.000000" stroke="none" 
	d="
M86.186020,303.162231 
	C94.074677,298.581909 101.665352,294.195801 109.409401,289.721069 
	C109.215935,293.007721 93.849022,302.947052 84.974319,305.676453 
	C85.354805,304.710358 85.621414,304.033417 86.186020,303.162231 
z"/>
<path fill="#E6EAF2" opacity="1.000000" stroke="none" 
	d="
M174.656540,247.677673 
	C170.799133,249.785110 167.266068,251.719131 163.733017,253.653152 
	C163.447556,253.136475 163.162079,252.619797 162.876617,252.103104 
	C173.038345,246.196457 183.200089,240.289810 193.361816,234.383163 
	C193.706161,234.939316 194.050507,235.495483 194.394836,236.051636 
	C187.923523,239.869171 181.452209,243.686722 174.656540,247.677673 
z"/>
<path fill="#70BEFE" opacity="1.000000" stroke="none" 
	d="
M145.097046,200.116516 
	C148.540817,198.182068 151.657791,196.410843 155.210693,194.391907 
	C154.398453,198.083603 139.652466,207.349167 133.130585,207.532257 
	C137.010483,205.114746 140.890366,202.697250 145.097046,200.116516 
z"/>
<path fill="#88EA6E" opacity="1.000000" stroke="none" 
	d="
M174.324295,238.273560 
	C181.048309,234.366867 187.473465,230.657349 194.081161,226.842438 
	C193.753983,229.944626 179.486160,239.218109 171.229889,241.018707 
	C172.161728,240.169373 173.093582,239.320038 174.324295,238.273560 
z"/>
<path fill="#E6EAF2" opacity="1.000000" stroke="none" 
	d="
M144.034607,196.006897 
	C137.088974,200.047379 130.474670,203.931549 123.860367,207.815720 
	C123.554726,207.283798 123.249092,206.751877 122.943451,206.219955 
	C132.019745,200.919113 141.096039,195.618271 150.172318,190.317429 
	C150.473267,190.778458 150.774216,191.239487 151.075150,191.700500 
	C148.838745,193.083862 146.602325,194.467224 144.034607,196.006897 
z"/>
<path fill="#E6EAF2" opacity="1.000000" stroke="none" 
	d="
M153.375793,181.357605 
	C155.930664,179.934097 158.176300,178.705017 160.421921,177.475922 
	C160.719299,177.995499 161.016663,178.515060 161.314041,179.034622 
	C153.242691,183.728973 145.171341,188.423325 137.099976,193.117676 
	C136.780777,192.610718 136.461563,192.103745 136.142365,191.596771 
	C141.783768,188.248520 147.425171,184.900269 153.375793,181.357605 
z"/>
<path fill="#E6EAF2" opacity="1.000000" stroke="none" 
	d="
M93.396698,218.352966 
	C90.716385,219.984756 88.347336,221.422638 85.818985,222.957214 
	C85.872375,220.213913 100.071533,211.073364 107.422783,208.679840 
	C107.647697,209.027664 107.872612,209.375488 108.097527,209.723328 
	C103.301003,212.535233 98.504486,215.347137 93.396698,218.352966 
z"/>
<path fill="#DFB173" opacity="1.000000" stroke="none" 
	d="
M145.041351,272.003296 
	C141.766327,273.911224 138.816574,275.649384 135.444061,277.636627 
	C136.160049,273.877869 140.456284,270.942719 152.135117,265.567261 
	C152.404724,265.971527 152.674347,266.375793 152.943954,266.780060 
	C150.418182,268.464569 147.892395,270.149048 145.041351,272.003296 
z"/>
<path fill="#E6EAF2" opacity="1.000000" stroke="none" 
	d="
M117.229843,202.210846 
	C122.490517,199.173859 127.466179,196.359802 132.441849,193.545746 
	C132.733139,194.026672 133.024445,194.507584 133.315735,194.988510 
	C126.213463,199.261765 119.111191,203.535004 112.008919,207.808258 
	C111.691757,207.320160 111.374588,206.832047 111.057426,206.343933 
	C113.019897,205.040543 114.982368,203.737152 117.229843,202.210846 
z"/>
<path fill="#E6EAF2" opacity="1.000000" stroke="none" 
	d="
M105.864914,280.030518 
	C99.068115,284.081207 92.562645,287.957153 86.057175,291.833069 
	C85.776169,291.405823 85.495171,290.978546 85.214172,290.551270 
	C91.444450,285.007202 99.562569,282.260468 107.320183,276.766357 
	C106.650177,278.544678 106.403198,279.200226 105.864914,280.030518 
z"/>
<path fill="#E6EAF2" opacity="1.000000" stroke="none" 
	d="
M181.672394,174.678528 
	C179.519485,175.825287 177.688187,176.801178 175.856888,177.777054 
	C175.555511,177.256821 175.254135,176.736603 174.952759,176.216370 
	C181.062439,172.577271 187.172119,168.938171 193.281799,165.299072 
	C193.636322,165.846588 193.990829,166.394104 194.345337,166.941605 
	C190.228226,169.463623 186.111099,171.985641 181.672394,174.678528 
z"/>
<path fill="#E6EAF2" opacity="1.000000" stroke="none" 
	d="
M174.629517,254.704437 
	C168.529953,258.246094 162.742767,261.620087 156.955582,264.994049 
	C156.650040,264.484863 156.344498,263.975677 156.038956,263.466461 
	C162.777740,259.470673 169.516525,255.474854 176.255310,251.479034 
	C176.517334,251.738022 176.779358,251.997009 177.041382,252.255997 
	C176.341553,253.016251 175.641724,253.776505 174.629517,254.704437 
z"/>
<path fill="#E6EAF2" opacity="1.000000" stroke="none" 
	d="
M114.304337,213.343582 
	C109.663734,216.038651 105.342552,218.559982 101.021378,221.081314 
	C100.682083,220.496033 100.342796,219.910751 100.003502,219.325455 
	C106.003983,215.847366 112.004463,212.369263 118.004951,208.891159 
	C118.298607,209.349701 118.592270,209.808258 118.885925,210.266800 
	C117.465202,211.234482 116.044479,212.202164 114.304337,213.343582 
z"/>
<path fill="#E6EAF2" opacity="1.000000" stroke="none" 
	d="
M153.720673,252.656265 
	C152.189880,253.461182 150.974609,254.095673 149.759323,254.730164 
	C149.482010,254.237228 149.204681,253.744308 148.927368,253.251389 
	C154.905472,249.734055 160.883575,246.216721 166.861679,242.699402 
	C167.186203,243.238861 167.510712,243.778336 167.835236,244.317810 
	C163.235535,247.040482 158.635849,249.763153 153.720673,252.656265 
z"/>
<path fill="#B995FD" opacity="1.000000" stroke="none" 
	d="
M109.111038,276.900574 
	C113.666763,273.552368 118.270340,270.559052 123.488495,267.166107 
	C122.664345,271.488892 113.989304,277.027618 109.111038,276.900574 
z"/>
<path fill="#E6EAF2" opacity="1.000000" stroke="none" 
	d="
M145.316803,262.322815 
	C149.768890,259.734619 153.900986,257.317322 158.033081,254.900024 
	C158.335587,255.433609 158.638092,255.967194 158.940613,256.500763 
	C152.950394,260.015442 146.960175,263.530121 140.969971,267.044800 
	C140.667572,266.576904 140.365173,266.109009 140.062775,265.641113 
	C141.707458,264.591980 143.352142,263.542816 145.316803,262.322815 
z"/>
<path fill="#E6EAF2" opacity="1.000000" stroke="none" 
	d="
M151.781784,272.769165 
	C156.413559,270.037506 160.759598,267.532257 165.105637,265.026978 
	C165.413589,265.551636 165.721558,266.076294 166.029510,266.600952 
	C159.889877,270.232056 153.750244,273.863190 147.610626,277.494293 
	C147.340363,277.133972 147.070099,276.773621 146.799850,276.413300 
	C148.365250,275.274048 149.930649,274.134796 151.781784,272.769165 
z"/>
<path fill="#E6EAF2" opacity="1.000000" stroke="none" 
	d="
M106.604149,284.645996 
	C110.365219,282.390472 113.817406,280.327515 117.269585,278.264557 
	C117.606544,278.854584 117.943504,279.444580 118.280472,280.034607 
	C112.507545,283.371033 106.734627,286.707458 100.961700,290.043884 
	C100.640381,289.522125 100.319054,289.000366 99.997734,288.478577 
	C102.096909,287.265228 104.196083,286.051880 106.604149,284.645996 
z"/>
<path fill="#E6EAF2" opacity="1.000000" stroke="none" 
	d="
M163.223053,185.220184 
	C160.517807,186.816284 158.099518,188.186798 155.681244,189.557312 
	C155.374084,189.076874 155.066910,188.596420 154.759750,188.115982 
	C160.614120,184.566437 166.468475,181.016891 172.322845,177.467346 
	C172.645721,177.934998 172.968582,178.402649 173.291458,178.870300 
	C170.030991,180.911728 166.770508,182.953171 163.223053,185.220184 
z"/>
<path fill="#E6EAF2" opacity="1.000000" stroke="none" 
	d="
M127.921127,279.057495 
	C128.941177,278.701874 129.649506,278.492889 130.357834,278.283875 
	C130.598907,278.750214 130.839981,279.216553 131.081055,279.682892 
	C125.972755,282.704468 120.864449,285.726013 115.756149,288.747559 
	C115.409462,288.207062 115.062767,287.666534 114.716080,287.126038 
	C119.013863,284.485382 123.311646,281.844757 127.921127,279.057495 
z"/>
<path fill="#E6EAF2" opacity="1.000000" stroke="none" 
	d="
M131.326202,270.321777 
	C133.484192,269.178314 135.320343,268.205627 137.156494,267.232910 
	C137.416443,267.658630 137.676376,268.084351 137.936325,268.510071 
	C132.914581,271.606171 127.892822,274.702240 122.871071,277.798340 
	C122.540405,277.277191 122.209740,276.756042 121.879074,276.234863 
	C124.920830,274.320770 127.962593,272.406647 131.326202,270.321777 
z"/>
<path fill="#E6EAF2" opacity="1.000000" stroke="none" 
	d="
M183.995468,246.980774 
	C187.555069,244.934540 190.791046,243.040390 194.394272,240.931274 
	C192.950821,244.845993 186.059357,249.300156 180.045807,249.647644 
	C181.254486,248.809387 182.463165,247.971130 183.995468,246.980774 
z"/>
<path fill="#E6EAF2" opacity="1.000000" stroke="none" 
	d="
M140.264313,260.361755 
	C135.881577,262.874939 131.806793,265.218597 127.732010,267.562256 
	C127.444817,267.081421 127.157623,266.600616 126.870430,266.119781 
	C131.901611,263.104095 136.932785,260.088379 141.963974,257.072693 
	C142.243759,257.376343 142.523544,257.679993 142.803329,257.983673 
	C142.059647,258.719849 141.315964,259.456055 140.264313,260.361755 
z"/>
<path fill="#E6EAF2" opacity="1.000000" stroke="none" 
	d="
M191.181625,176.250549 
	C188.496613,177.830811 186.090530,179.193344 183.684448,180.555862 
	C183.381531,180.062164 183.078613,179.568481 182.775696,179.074783 
	C186.521774,176.723862 190.267853,174.372925 194.013947,172.021988 
	C194.319260,172.445953 194.624588,172.869934 194.929901,173.293900 
	C193.773453,174.206879 192.616989,175.119843 191.181625,176.250549 
z"/>
<path fill="#E6EAF2" opacity="1.000000" stroke="none" 
	d="
M165.924774,188.061371 
	C166.942627,187.706635 167.648758,187.497177 168.354889,187.287720 
	C168.583618,187.723816 168.812347,188.159927 169.041092,188.596024 
	C165.242722,190.908646 161.444366,193.221252 157.645996,195.533859 
	C157.328506,195.074631 157.011002,194.615417 156.693512,194.156189 
	C159.666702,192.173019 162.639893,190.189835 165.924774,188.061371 
z"/>
<path fill="#E6EAF2" opacity="1.000000" stroke="none" 
	d="
M87.342476,298.120728 
	C86.661919,297.830505 86.248009,297.332550 85.834106,296.834656 
	C88.974007,295.002167 92.113907,293.169678 95.253807,291.337189 
	C95.515640,291.772949 95.777466,292.208679 96.039291,292.644440 
	C93.229233,294.400635 90.419182,296.156799 87.342476,298.120728 
z"/>
<path fill="#E6EAF2" opacity="1.000000" stroke="none" 
	d="
M180.056854,182.272644 
	C177.468521,183.907227 175.122391,185.304596 172.776260,186.701965 
	C172.422836,186.173019 172.069412,185.644089 171.715988,185.115158 
	C174.516525,183.532639 177.317062,181.950119 180.117615,180.367599 
	C180.178101,180.923538 180.238586,181.479492 180.056854,182.272644 
z"/>
<path fill="#E6EAF2" opacity="1.000000" stroke="none" 
	d="
M142.237915,280.432495 
	C139.604645,282.042206 137.247879,283.456818 134.891113,284.871429 
	C134.612869,284.408051 134.334641,283.944672 134.056412,283.481293 
	C137.025482,281.614777 139.994568,279.748291 142.963638,277.881775 
	C143.220963,278.238800 143.478302,278.595795 143.735626,278.952820 
	C143.328552,279.381012 142.921478,279.809204 142.237915,280.432495 
z"/>
<path fill="#E6EAF2" opacity="1.000000" stroke="none" 
	d="
M89.400055,225.346237 
	C91.160492,224.488983 92.616165,223.820541 94.071846,223.152100 
	C94.305367,223.530884 94.538895,223.909668 94.772415,224.288452 
	C91.864220,226.168976 88.956024,228.049500 86.047821,229.930023 
	C85.739922,229.584824 85.432022,229.239624 85.124115,228.894424 
	C86.447845,227.774643 87.771568,226.654861 89.400055,225.346237 
z"/>
<path fill="#F9FBFF" opacity="1.000000" stroke="none" 
	d="
M124.984474,94.036751 
	C127.349693,92.898956 129.672302,91.659569 132.089523,90.645729 
	C136.370804,88.850037 139.850128,90.247490 140.159042,94.814034 
	C140.752243,103.583183 140.509888,112.414146 140.424347,121.217621 
	C140.412888,122.397133 139.531006,123.804916 138.633606,124.675491 
	C137.647842,125.631805 136.177673,126.088806 134.918579,126.763367 
	C134.346649,125.495750 133.313293,124.239975 133.280380,122.958511 
	C133.112396,116.416512 133.202789,109.867889 133.202789,103.321579 
	C132.666901,103.286041 132.131012,103.250504 131.595123,103.214958 
	C131.447372,104.681641 131.160675,106.149490 131.172974,107.614830 
	C131.326782,125.941353 131.603546,144.267441 131.622681,162.593857 
	C131.625504,165.292542 130.786255,168.136780 129.686356,170.626373 
	C129.191055,171.747452 127.096642,172.162018 125.727798,172.897156 
	C125.197250,171.601791 124.223457,170.312180 124.206604,169.010162 
	C124.077171,159.012726 124.133606,149.012894 124.132423,139.013794 
	C124.132210,137.218918 124.132393,135.424057 124.132393,133.629181 
	C123.570892,133.513718 123.009392,133.398254 122.447884,133.282791 
	C122.012230,134.855408 121.216599,136.424057 121.199257,138.001266 
	C121.085655,148.332413 121.147026,158.665451 121.132553,168.997818 
	C121.130455,170.495407 121.555328,172.330475 120.858910,173.417648 
	C119.550095,175.460800 117.566864,177.071930 115.864059,178.862686 
	C115.233170,176.992416 114.073456,175.127762 114.053596,173.251022 
	C113.864929,155.420837 113.869339,137.588593 113.819611,119.756935 
	C113.814667,117.983681 113.818962,116.210403 113.818962,114.437134 
	C113.362877,114.374039 112.906799,114.310944 112.450714,114.247849 
	C112.211304,115.308899 111.779488,116.367325 111.764923,117.431458 
	C111.691917,122.763336 111.779892,128.097504 111.697395,133.429123 
	C111.669342,135.241547 111.853149,137.400589 110.967010,138.772797 
	C109.756790,140.646881 107.616249,141.920166 105.874527,143.451019 
	C105.293938,141.710785 104.279572,139.987045 104.212723,138.227295 
	C103.997772,132.569305 104.292259,126.892517 104.097221,121.233078 
	C103.757233,111.367477 107.976379,104.311760 116.643509,99.751221 
	C118.406914,98.823334 120.047195,97.661446 121.872971,96.307297 
	C122.001709,96.007164 121.972641,96.037651 122.274826,95.993378 
	C122.728310,95.621429 122.879608,95.293770 123.013672,94.980850 
	C122.996422,94.995590 122.959587,95.022125 123.287643,95.118759 
	C124.088768,94.805603 124.561829,94.395813 125.019577,93.996025 
	C125.004250,94.006027 124.984474,94.036751 124.984474,94.036751 
z"/>
<path fill="#F9FBFF" opacity="1.000000" stroke="none" 
	d="
M122.019524,95.996002 
	C116.197716,95.363922 114.519081,92.582809 116.537994,86.873680 
	C118.336121,81.788872 123.183441,77.883804 126.175461,79.109596 
	C129.104248,80.309479 129.102371,85.520683 126.163132,90.758026 
	C125.676964,91.624298 125.157715,92.472008 124.819115,93.682526 
	C124.984474,94.036751 125.004250,94.006027 124.709969,93.800606 
	C123.930321,94.070831 123.444954,94.546478 122.959587,95.022125 
	C122.959587,95.022125 122.996422,94.995590 122.686371,94.995827 
	C122.241768,95.343262 122.107208,95.690460 121.972641,96.037651 
	C121.972641,96.037651 122.001709,96.007164 122.019524,95.996002 
z"/>
<path fill="#4D668D" opacity="1.000000" stroke="none" 
	d="
M101.394890,84.340775 
	C102.174568,84.340767 102.954239,84.340767 103.733917,84.340767 
	C103.910912,84.732063 104.087906,85.123352 104.264893,85.514648 
	C99.783638,88.249016 95.302383,90.983391 90.821121,93.717758 
	C90.331963,93.224396 89.842812,92.731026 89.353653,92.237663 
	C91.115456,91.400925 92.877251,90.564178 94.639053,89.727440 
	C94.340034,89.305252 94.041016,88.883057 93.741997,88.460869 
	C92.752312,88.554939 91.762634,88.649010 90.500313,88.768997 
	C89.299774,78.748184 98.965576,79.669037 103.181587,75.250168 
	C103.700043,75.561653 104.218498,75.873131 104.736954,76.184608 
	C103.568764,78.517433 102.400581,80.850258 100.669952,83.556702 
	C99.069016,84.626114 98.030518,85.321892 96.992020,86.017670 
	C97.307823,86.418922 97.623627,86.820175 97.939430,87.221436 
	C99.091248,86.261215 100.243073,85.300995 101.394890,84.340775 
M98.748192,82.036217 
	C98.975914,81.464905 99.203644,80.893593 99.431366,80.322273 
	C98.849922,80.743286 98.268478,81.164299 97.071312,81.705284 
	C96.326851,82.071877 95.582382,82.438477 94.249260,82.962044 
	C94.022705,83.533539 93.796143,84.105026 93.569580,84.676514 
	C94.150726,84.255898 94.731865,83.835281 95.928337,83.293427 
	C96.671913,82.926292 97.415497,82.559158 98.748192,82.036217 
z"/>
<path fill="#EDF4FF" opacity="1.000000" stroke="none" 
	d="
M175.725403,145.546631 
	C173.523270,148.036484 171.326584,150.127747 168.587875,152.734970 
	C167.185730,143.430054 167.185730,143.430054 175.730850,139.261414 
	C175.730850,141.445236 175.730850,143.296616 175.725403,145.546631 
z"/>
<path fill="#F9FBFF" opacity="1.000000" stroke="none" 
	d="
M173.650116,133.503052 
	C171.750488,134.522446 170.178940,135.327271 168.462067,136.206512 
	C167.294632,127.895638 167.489944,127.561699 176.384216,123.856781 
	C175.436768,127.570770 174.707474,130.429626 173.650116,133.503052 
z"/>
<path fill="#E8F1FF" opacity="1.000000" stroke="none" 
	d="
M146.421341,92.114761 
	C143.221222,92.209473 144.050476,90.852737 145.506561,89.971489 
	C151.562592,86.306343 157.719879,82.808510 164.315552,79.960960 
	C159.416199,85.350922 152.641342,88.060051 146.421341,92.114761 
z"/>
<path fill="#F9FBFF" opacity="1.000000" stroke="none" 
	d="
M167.964050,75.487946 
	C169.996628,73.380119 172.015610,71.682404 174.349365,69.720009 
	C175.965897,78.185265 175.384354,79.239563 167.950439,81.813576 
	C167.950439,79.732803 167.950439,77.815430 167.964050,75.487946 
z"/>
<path fill="#E5EFFF" opacity="1.000000" stroke="none" 
	d="
M163.376144,133.906281 
	C163.600311,134.600662 163.816757,135.902039 163.401505,136.151382 
	C157.332092,139.795822 151.178329,143.299805 144.518509,146.028091 
	C149.862503,140.766281 156.799530,137.881516 163.376144,133.906281 
z"/>
<path fill="#F9FBFF" opacity="1.000000" stroke="none" 
	d="
M167.753784,64.084694 
	C167.268723,58.747982 171.557373,58.805874 174.271378,56.968590 
	C176.175659,64.488274 175.785675,65.231964 168.318787,68.116341 
	C168.120728,66.851395 167.937347,65.680283 167.753784,64.084694 
z"/>
<path fill="#E5EFFF" opacity="1.000000" stroke="none" 
	d="
M161.674545,152.734146 
	C155.976517,156.014084 150.575485,159.094635 145.174469,162.175171 
	C144.858688,161.629395 144.542923,161.083618 144.227158,160.537827 
	C150.799988,156.676559 157.372833,152.815277 163.945663,148.953995 
	C164.252014,149.343246 164.558365,149.732498 164.864716,150.121750 
	C163.900330,150.926086 162.935944,151.730408 161.674545,152.734146 
z"/>
<path fill="#EDF4FF" opacity="1.000000" stroke="none" 
	d="
M147.478790,75.424728 
	C153.036957,72.204971 158.292068,69.176949 163.547180,66.148926 
	C163.881577,66.687424 164.215973,67.225929 164.550369,67.764427 
	C158.448196,72.096245 151.600250,75.268356 145.225876,79.176895 
	C144.910843,78.788902 144.595810,78.400917 144.280777,78.012924 
	C145.245758,77.214111 146.210754,76.415291 147.478790,75.424728 
z"/>
<path fill="#4D71A8" opacity="1.000000" stroke="none" 
	d="
M186.941956,34.446629 
	C187.020035,32.119904 186.802490,29.630302 187.880920,27.995764 
	C189.914383,24.913733 192.253830,25.698370 192.991669,29.424406 
	C193.242508,30.691097 193.429504,31.970425 193.724518,33.708485 
	C191.569778,34.027481 189.400574,34.348618 186.941956,34.446629 
z"/>
<path fill="#FBFEFA" opacity="1.000000" stroke="none" 
	d="
M144.941177,222.815277 
	C145.121262,220.388916 145.301270,218.391739 145.481277,216.394547 
	C145.835449,216.437775 146.189606,216.481003 146.543762,216.524216 
	C146.543762,223.911469 146.543762,231.298706 146.543762,238.685959 
	C146.113052,238.708862 145.682343,238.731766 145.251633,238.754654 
	C145.085663,236.100174 144.919678,233.445694 144.701447,229.955414 
	C141.197479,231.984818 137.069763,233.156601 135.090332,235.886246 
	C133.331253,238.311996 133.954544,242.465363 132.777512,245.773422 
	C131.906540,238.274109 131.791809,230.858276 132.095749,223.456696 
	C132.697906,223.461258 133.300079,223.465820 133.902237,223.470383 
	C134.054520,226.190567 134.206802,228.910751 134.427811,232.858810 
	C138.247604,229.075302 144.871887,230.216095 144.941177,222.815277 
z"/>
<path fill="#FFF8EA" opacity="1.000000" stroke="none" 
	d="
M178.025940,208.069138 
	C178.803162,205.150406 179.580383,202.231674 180.718842,199.471313 
	C182.870377,200.812057 184.660660,201.994431 186.450958,203.176804 
	C184.320816,206.210648 182.190674,209.244492 179.633774,212.631638 
	C175.138443,212.229279 179.084152,209.548080 178.025940,208.069138 
M182.175232,203.753342 
	C182.120071,203.587143 182.064911,203.420929 182.009735,203.254730 
	C181.955872,203.421860 181.902023,203.589005 182.175232,203.753342 
z"/>
<path fill="#FFF6E2" opacity="1.000000" stroke="none" 
	d="
M186.695557,202.955688 
	C184.660660,201.994431 182.870377,200.812057 181.028076,199.279312 
	C181.467545,197.569321 181.959015,196.209686 182.471786,194.791153 
	C184.768295,196.327805 186.762650,197.662277 189.159500,199.266052 
	C188.478836,200.329865 187.709503,201.532227 186.695557,202.955688 
z"/>
<path fill="#FFF6E2" opacity="1.000000" stroke="none" 
	d="
M178.163422,217.055374 
	C177.428818,218.651505 176.694199,220.247650 176.024368,221.703033 
	C173.591370,220.578842 171.519043,219.621292 168.969589,218.443298 
	C169.667572,217.306091 170.569092,215.837280 172.063766,214.345245 
	C174.492416,215.233139 176.327927,216.144257 178.163422,217.055374 
z"/>
<path fill="#FFF8EA" opacity="1.000000" stroke="none" 
	d="
M178.397095,216.875977 
	C176.327927,216.144257 174.492416,215.233139 172.350250,214.171982 
	C173.159973,212.746735 174.276367,211.471512 175.690521,210.464005 
	C175.995026,212.868637 175.593033,215.295715 179.021072,215.003845 
	C178.890976,215.568085 178.760880,216.132339 178.397095,216.875977 
z"/>
<path fill="#FFF6E2" opacity="1.000000" stroke="none" 
	d="
M179.256989,214.829285 
	C175.593033,215.295715 175.995026,212.868637 175.982422,210.314575 
	C176.484314,209.360092 176.992096,208.822723 177.762909,208.177246 
	C179.084152,209.548080 175.138443,212.229279 179.555206,212.988159 
	C179.766541,213.545837 179.629715,214.100281 179.256989,214.829285 
z"/>
<path fill="#5295FF" opacity="1.000000" stroke="none" 
	d="
M123.287643,95.118759 
	C123.444954,94.546478 123.930321,94.070831 124.725296,93.790604 
	C124.561829,94.395813 124.088768,94.805603 123.287643,95.118759 
z"/>
<path fill="#5295FF" opacity="1.000000" stroke="none" 
	d="
M122.274826,95.993378 
	C122.107208,95.690460 122.241768,95.343262 122.703621,94.981079 
	C122.879608,95.293770 122.728310,95.621429 122.274826,95.993378 
z"/>
<path fill="#5295FF" opacity="1.000000" stroke="none" 
	d="
M101.230835,84.193085 
	C100.243073,85.300995 99.091248,86.261215 97.939430,87.221436 
	C97.623627,86.820175 97.307823,86.418922 96.992020,86.017670 
	C98.030518,85.321892 99.069016,84.626114 100.431686,83.831161 
	C100.755852,83.731995 101.066772,84.045403 101.230835,84.193085 
z"/>
<path fill="#5295FF" opacity="1.000000" stroke="none" 
	d="
M95.313011,83.414665 
	C94.731865,83.835281 94.150726,84.255898 93.569580,84.676514 
	C93.796143,84.105026 94.022705,83.533539 94.666168,83.034119 
	C95.083076,83.106186 95.313011,83.414665 95.313011,83.414665 
z"/>
<path fill="#5295FF" opacity="1.000000" stroke="none" 
	d="
M97.687027,81.585312 
	C98.268478,81.164299 98.849922,80.743286 99.431366,80.322273 
	C99.203644,80.893593 98.975914,81.464905 98.332443,81.964920 
	C97.916687,81.893623 97.687027,81.585312 97.687027,81.585312 
z"/>
<path fill="#5295FF" opacity="1.000000" stroke="none" 
	d="
M98.037880,82.042824 
	C97.415497,82.559158 96.671913,82.926292 95.620674,83.354050 
	C95.313011,83.414665 95.083076,83.106186 94.960495,82.955627 
	C95.582382,82.438477 96.326851,82.071877 97.379166,81.645294 
	C97.687027,81.585312 97.916687,81.893623 98.037880,82.042824 
z"/>
<path fill="#FFF6E2" opacity="1.000000" stroke="none" 
	d="
M182.011688,203.754730 
	C181.902023,203.589005 181.955872,203.421860 182.009735,203.254730 
	C182.064911,203.420929 182.120071,203.587143 182.011688,203.754730 
z"/>
</svg>